<?xml version="1.0" encoding="UTF-8"?><svg id="Layer_2" xmlns="http://www.w3.org/2000/svg" width="430.87" height="189.34" viewBox="0 0 430.87 189.34"><g id="Layer_1-2"><path d="m234.73,145.53s-.14.1-.38.23c.22-.1.38-.17.38-.17v-.06Z" style="fill:#1c1b18; stroke-width:0px;"/><path d="m128.72,151.63v-25.6c0-4.56-.76-8.6-2.82-12.14-2.07-3.54-4.88-6.29-8.7-8.23-3.83-1.95-8.15-2.93-13.11-2.93-3.74,0-7.93.55-12.65,1.65-4.72,1.1-8.4,2.38-11.08,3.84l5.13,14.63c2.27-1.05,4.93-1.95,7.93-2.68,3.01-.73,5.69-1.1,8.06-1.1,2.52,0,4.53.91,6.04,2.34,1.5,1.42,2.34,2.66,2.5,6.24h-9.27c-7.07,0-12.64,1.3-16.71,4.31-4.07,3.01-6.09,7.42-6.09,13.43,0,2.39.29,4.53.85,6.53l.1-.09s-.24.19-2.02.63v-72.8l-19.67,3.1v32.37H19.67v-35.4l-19.67,3.1v80.56h2.53l17.14-2.29v-29.89h37.54v28.36c-8.94,4.21-22.03,10.32-34.77,18.82,33.79-12.84,70.53-21.75,106.28-26.77Zm-32.8-11.26c1.27-1.22,2.91-2,4.94-2h9.98v7.53c-3.58,3.09-7.14,4.63-10.72,4.63-1.71,0-3.26-.53-4.32-1.58-1.06-1.06-1.67-2.4-1.67-3.87,0-1.87.54-3.5,1.8-4.72Z" style="fill:#1c1b18; stroke-width:0px;"/><polygon points="19.67 31.01 31.26 45.7 37.94 54.34 41.75 54.34 57.21 32.43 57.21 77.27 76.88 74.14 76.88 0 57.81 2.9 40.16 28.21 18.35 .17 0 2.93 0 77.31 19.67 74.21 19.67 31.01" style="fill:#1c1b18; stroke-width:0px;"/><path d="m84.04,44.43c-4.07,3.01-6.09,7.46-6.09,13.48s1.83,10.89,5.49,14.42c3.65,3.54,9.06,5.29,16.22,5.29,5.28,0,10.13-2.76,14.52-7.8l4.51,5.98h10.04v-37.22c0-4.56-.76-8.6-2.82-12.14-2.07-3.53-4.88-6.28-8.7-8.23-3.83-1.95-8.15-2.93-13.11-2.93-3.74,0-7.93.55-12.65,1.65-4.72,1.1-8.4,2.37-11.08,3.84l5.13,14.63c2.27-1.05,4.93-1.95,7.93-2.68,3.01-.73,5.69-1.1,8.06-1.1,2.52,0,4.53.84,6.04,2.26,1.5,1.42,2.34,2.58,2.5,6.16h-9.27c-7.07,0-12.64,1.38-16.71,4.39Zm26.81,6.34v7.69c-3.58,3.09-7.14,4.64-10.72,4.64-1.71,0-3.26-.53-4.32-1.59-1.06-1.06-1.67-2.32-1.67-3.78,0-1.87.58-3.66,1.84-4.88,1.27-1.22,2.87-2.08,4.9-2.08h9.98Z" style="fill:#1c1b18; stroke-width:0px;"/><path d="m224.36,30.1c-2.6,4.76-3.91,10.31-3.91,16.65,0,9.68,3.11,17.24,9.33,22.69,6.22,5.45,14.73,8.17,25.56,8.17,4.79,0,9.21-.61,13.23-1.83,4.03-1.22,7.42-2.85,10.18-4.88l-5.36-13.29c-5.54,3.09-11.1,4.98-16.71,4.98-8.62,0-13.82-4.66-15.61-10.03h37.84v-6.42c0-5.77-.98-10.98-3.07-15.61-2.07-4.63-5.16-8.33-9.3-11.1-4.15-2.76-9.22-4.14-15.23-4.14s-11.36,1.28-16.04,3.84c-4.68,2.56-8.31,6.22-10.91,10.98Zm19.7,4.07c1.83-1.83,4.08-2.95,6.77-2.95,2.85,0,5.1,1.22,6.77,3.05,1.67,1.83,2.74,3.98,3.23,7.56h-20c.32-3.58,1.4-5.83,3.24-7.66Z" style="fill:#1c1b18; stroke-width:0px;"/><path d="m423.94,181.46c-9.97-8.01-23.46-14.05-32.4-18.3v-39.82c5.36-3.41,10.11-5.12,13.53-5.12,2.44,0,3.68.84,4.9,2.5,1.22,1.67,1.24,3.92,1.24,6.77v37.07l19.67-2.95v-35.59c0-7.24-1.51-12.95-4.8-17.13-3.29-4.19-8.52-6.28-15.85-6.28-3.73,0-7.66.75-11.85,2.25-4.19,1.5-8.06,3.4-11.63,5.84l-3.28-6.3h-11.59v52.01c-1.9-.4-2.29-.56-3.67-.82l.09-29.58c0-4.56-.67-8.6-2.75-12.13-2.07-3.54-4.84-6.29-8.66-8.24-3.83-1.95-8.13-2.93-13.08-2.93-3.74,0-7.93.55-12.65,1.65-4.72,1.1-8.39,2.38-11.07,3.84l5.13,14.63c2.28-1.05,4.93-1.95,7.94-2.68,3.01-.73,5.69-1.1,8.05-1.1,2.52,0,4.54.91,6.05,2.34,1.5,1.42,2.33,2.66,2.5,6.24h-9.27c-7.08,0-12.64,1.3-16.71,4.31-4.06,3.01-6.09,7.42-6.09,13.43,0,2.55.53,4.82,1.17,6.92,36.5,5.74,71.65,15.39,105.1,29.15Zm-73.52-35.56c-3.58,3.09-7.06,4.63-10.63,4.63-1.71,0-3.23-.53-4.28-1.58-1.06-1.06-1.66-2.32-1.66-3.78,0-1.87.59-3.58,1.85-4.8,1.26-1.22,2.88-2,4.9-2h9.82v7.53Z" style="fill:#1c1b18; stroke-width:0px;"/><path d="m335.28,73.15c2.9,2.36,6.7,3.54,11.23,3.54,1.48,0,3.12-.27,4.84-.81,1.72-.54,3.03-1.16,3.86-1.84l-3.3-8.05c-1.53.79-3.04,1.18-4.57,1.18s-2.31-.52-3.14-1.55c-.83-1.03-.93-2.38-.93-4.06v-12.58h9.38l-2.06-8.94h-7.32v-10.29l-12.51,1.77v8.52h-5.36v8.94h5.36v14.13c0,4.33,1.63,7.67,4.53,10.03Z" style="fill:#1c1b18; stroke-width:0px;"/><path d="m357.57,75.8h10.73v-24.64c3.58-2.07,6.45-3.1,8.52-3.1,1.48,0,2.34.51,3.11,1.51.76,1.01.89,2.38.89,4.1v22.13h12.51v-23.02c0-9.45-4.4-14.17-12.82-14.17-1.86,0-4.03.32-6.07.96-2.04.64-4.36,1.48-6.15,2.51v-18.5l-10.73,1.77v50.44Z" style="fill:#1c1b18; stroke-width:0px;"/><path d="m400.14,71.45c3.76,3.29,8.91,4.94,15.45,4.94,2.91,0,5.57-.37,8.01-1.11,2.44-.74,4.49-1.72,6.16-2.95l-3.25-8.04c-3.34,1.87-6.71,3.14-10.11,3.14-5.21,0-8.36-2.36-9.44-5.94h22.12v-4.14c0-3.49-.21-6.64-1.47-9.45-1.25-2.8-2.92-5.04-5.44-6.72-2.51-1.67-5.48-2.51-9.12-2.51s-6.81.78-9.65,2.33c-2.83,1.55-5.01,3.76-6.58,6.64-1.57,2.88-2.34,6.23-2.34,10.07,0,5.85,1.89,10.43,5.66,13.73Zm8.62-21.54c1.11-1.11,2.47-1.68,4.1-1.68,1.72,0,3.08.59,4.1,1.7,1.01,1.11,1.66,2.64,1.96,4.42h-12.1c.19-1.79.85-3.33,1.95-4.43Z" style="fill:#1c1b18; stroke-width:0px;"/><path d="m193.16,72.24c4.8,3.9,10.95,5.85,18.44,5.85,2.24,0,4.67-.39,7.25-1.15.13-.04.28-.08.41-.11.09-.03.19-.05.28-.08.11-.03.2-.07.3-.1.39-.12.78-.26,1.17-.41,1.71-.62,3.09-1.3,4.15-2.03.8-.48,1.63-1.06,2.47-1.69-.1-.09-.22-.17-.33-.26-3.61-3.15-6.29-6.95-8.05-11.34-2.14.94-4.27,1.43-6.41,1.43-2.44,0-4.07-.85-5.45-2.56-1.38-1.71-1.79-3.94-1.79-6.71v-20.2h13.87l-1.75-14.3h-12.12V.52l-19.67,2.93v15.14h-8.94v14.3h8.94v22.76c0,7.16,2.43,12.69,7.23,16.59Z" style="fill:#1c1b18; stroke-width:0px;"/><path d="m157.13,61.81c-1.5.69-3.23,1.04-5.18,1.04-2.12,0-4.7-.38-7.74-1.16-3.05-.77-5.84-1.76-8.36-2.99l-5.61,12.44c2.77,2.2,6.46,3.82,11.1,4.88,4.63,1.06,8.57,1.58,11.83,1.58,8.06,0,14.17-1.66,18.36-5,4.19-3.33,6.29-8.05,6.29-14.15,0-8.45-6.79-15.04-20.37-19.76-5.12-1.79-7.68-3.33-7.68-4.63,0-1.14.61-2.07,1.83-2.81,1.22-.73,2.77-1.1,4.64-1.1,4.21,0,9.05,1.18,14.47,3.51l5.53-12.57c-2.73-1.9-5.99-3.34-9.82-4.3-4.11-1.01-7.71-1.52-10.79-1.52-7.65,0-13.67,1.69-18.05,5.06-4.39,3.37-6.59,7.99-6.59,13.84,0,4.63,1.91,8.46,5.73,11.46,3.82,3.01,8.7,5.53,14.64,7.56,2.52.81,4.49,1.71,5.91,2.69,1.42.98,2.14,1.99,2.14,3.05,0,1.22-.75,2.18-2.26,2.87Z" style="fill:#1c1b18; stroke-width:0px;"/><path d="m300.36,40.9c3.58-2.52,6.6-4.58,10.3-6.16,3.7-1.58,7.15-2.38,10-2.38l-3.69-15.24c-3,0-6.34.87-10.08,2.62-3.74,1.75-7.02,3.5-9.86,5.7l-5.34-8.63h-9.2v59h17.88v-34.9Z" style="fill:#1c1b18; stroke-width:0px;"/><path d="m257.45,189.34l17.88-2.91v-23.96c3.58,1.29,6.66,1.94,9.57,1.94,9.47,0,17.11-2.77,22.57-8.31,1.46-1.48,2.8-3.13,3.87-4.91,2.93-4.89,4.46-10.91,4.46-18.09,0-9.79-2.67-17.36-8.05-22.7-5.38-5.34-12.63-8.01-21.77-8.01-5.59,0-10.92,1.9-16.02,5.63l-3.27-3.6h-9.23v84.94Zm17.88-42.65v-26.22c3.58-1.86,5.72-2.79,8.24-2.79,3.88,0,7.09,1.38,9.28,4.13,2.19,2.75,3.36,6.55,3.36,11.41s-1.05,8.64-3.23,11.59c-1.28,1.73-2.77,2.93-4.52,3.65-1.24.51-2.58.78-4.06.78-2.24,0-4.85-.59-7.14-1.72-.52-.26-.61-.24-1.92-.83Z" style="fill:#1c1b18; stroke-width:0px;"/><path d="m215.22,142.43c-1.06-2.38-1.61-5.25-1.61-8.64,0-4.78,1.09-8.62,3.28-11.53,2.18-2.91,4.79-4.37,8.35-4.37,3.24,0,7.18,1.01,8.96,3.04v24.65s.11.08-.11.17c-.82.46-2.96,1.46-6.87,1.29,1.44.62,3.3,1.5,5.26,2.72,0,0,.05.01.06.02.28.17.59.37.88.55,1.53,1.02,2.97,2.09,4.29,3.22,2.32,1.99,4.64,4.44,6.68,7.42.17.26.37.53.53.79l8.95-1.37v-70.3h0v-8.79c-7.15-.17-13.7-1.58-19.08-4.19,0,.44-.02,1.05-.01,1.81.02,7.04.07,26.24.07,26.24-3.41-1.63-6.79-2.44-10.12-2.44-9.51,0-17.04,2.79-22.56,8.36-2.75,2.77-4.81,6.07-6.2,9.89-1.34,3.8-2.01,8.11-2.01,12.94,0,2.24.16,4.35.44,6.36,7.35-.3,14.4.5,20.83,2.15Z" style="fill:#1c1b18; stroke-width:0px;"/><path d="m191.3,126.03c0-7.24-1.58-12.95-4.88-17.13-3.29-4.19-8.57-6.28-15.89-6.28-3.74,0-7.69.75-11.87,2.25-4.19,1.5-8.07,3.4-11.64,5.84l-3.29-6.3h-11.43v46.89c5.36-.82,12.51-1.54,17.88-2.14v-25.81c7.15-3.41,10.93-5.12,14.34-5.12,2.44,0,4.16.84,5.38,2.5,1.22,1.67,1.73,3.92,1.73,6.77v12.71c-2.89,1.86-6.99,4.58-11.05,8.15-2.21,1.94-4.39,4.14-6.34,6.57,5.54-4.69,12.97-8.77,21.19-11.4,4.96-1.55,10.6-2.61,15.86-3.06v-14.43Z" style="fill:#1c1b18; stroke-width:0px;"/><path d="m185.15,176.52c1.95,1.04,7.37,7.32,28.21,4.06,21.34-3.34,28.5-13.87,28.5-13.87-15.24,7.04-42.62,10.04-56.71,9.81Z" style="fill:#1c1b18; stroke-width:0px;"/></g></svg>